<?xml version="1.0" standalone="no"?>
<!DOCTYPE svg PUBLIC "-//W3C//DTD SVG 20010904//EN"
 "http://www.w3.org/TR/2001/REC-SVG-20010904/DTD/svg10.dtd">
<svg version="1.0" xmlns="http://www.w3.org/2000/svg"
 width="1000.000000pt" height="1100.000000pt" viewBox="0 0 1225.000000 1225.000000"
 preserveAspectRatio="xMidYMid meet">
<metadata>
Created by potrace 1.11, written by Peter Selinger 2001-2013
</metadata>
<g transform="translate(0.000000,1225.000000) scale(0.100000,-0.100000)"
fill="#000000" stroke="none">
<path d="M5825 12204 c-27 -2 -115 -8 -195 -14 -309 -23 -700 -88 -1020 -169
-1567 -398 -2924 -1421 -3750 -2826 -100 -171 -298 -571 -375 -760 -605 -1471
-605 -3149 -1 -4620 78 -189 276 -589 376 -760 952 -1619 2589 -2711 4440
-2959 310 -42 456 -51 820 -51 364 0 510 9 820 51 1851 248 3488 1340 4440
2959 100 171 298 571 376 760 604 1471 604 3148 -1 4620 -77 189 -275 589
-375 760 -953 1621 -2593 2714 -4445 2959 -105 14 -244 30 -310 36 -120 11
-705 21 -800 14z m560 -214 c453 -22 898 -92 1302 -205 1502 -419 2765 -1403
3541 -2758 605 -1056 863 -2291 737 -3517 -238 -2294 -1822 -4250 -4025 -4968
-1265 -413 -2655 -380 -3900 90 -1474 557 -2681 1707 -3313 3158 -506 1161
-619 2492 -316 3729 409 1671 1538 3085 3078 3855 633 317 1272 506 1981 586
322 36 597 45 915 30z"/>
<path d="M6218 11633 c-25 -3 -38 -9 -38 -19 0 -10 13 -14 50 -14 38 0 52 -4
60 -19 6 -12 10 -117 10 -273 0 -226 -2 -257 -19 -295 -33 -72 -146 -117 -245
-99 -49 9 -103 59 -115 104 -5 21 -11 159 -13 307 l-3 270 53 3 c38 2 52 7 52
18 0 12 -25 14 -162 12 -146 -3 -163 -5 -166 -20 -3 -15 4 -18 46 -18 l49 0 6
-127 c4 -71 7 -191 7 -268 0 -160 9 -201 51 -250 39 -45 107 -65 214 -65 108
0 171 19 218 68 62 64 68 100 61 367 -4 127 -4 243 0 258 6 24 11 27 51 27 38
0 45 3 45 20 0 19 -6 20 -87 18 -49 -1 -105 -3 -125 -5z"/>
<path d="M6678 11493 c-9 -60 -15 -110 -13 -112 11 -10 35 11 35 31 1 36 36
105 62 119 25 14 166 15 179 2 4 -4 -16 -154 -45 -333 l-51 -325 -53 3 c-42 3
-52 1 -52 -12 0 -9 3 -16 8 -16 4 0 75 -11 157 -24 83 -13 154 -21 159 -16 15
15 -3 27 -52 34 l-48 6 52 328 c29 180 53 329 53 331 2 7 96 -11 127 -24 59
-25 74 -51 74 -132 0 -55 3 -73 14 -73 10 0 18 31 31 111 9 61 15 112 13 113
-5 5 -591 96 -614 96 -18 0 -22 -11 -36 -107z"/>
<path d="M4973 11523 c-117 -19 -153 -29 -153 -40 0 -12 11 -14 52 -11 l53 3
51 -325 c29 -179 50 -328 47 -332 -2 -5 -14 -8 -26 -8 -38 0 -67 -12 -67 -26
0 -8 6 -14 13 -14 25 1 309 49 314 54 3 2 2 10 -2 16 -4 7 -24 8 -55 4 -57 -8
-49 -25 -81 175 -24 154 -25 151 62 151 75 0 104 -22 125 -98 34 -125 49 -158
80 -189 26 -27 40 -33 75 -33 50 0 115 16 124 30 12 20 -5 28 -34 17 -22 -8
-33 -8 -45 2 -15 13 -20 25 -56 149 -25 87 -65 137 -121 152 l-40 11 47 32
c63 42 87 88 80 149 -6 61 -28 101 -68 130 -48 34 -177 34 -375 1z m262 -35
c37 -29 55 -76 55 -144 0 -50 -3 -59 -33 -89 -33 -33 -88 -55 -139 -55 -16 0
-28 3 -28 8 0 4 -9 61 -20 127 -11 66 -20 130 -20 142 0 26 14 30 96 32 49 1
67 -3 89 -21z"/>
<path d="M4253 11317 c-160 -56 -294 -105 -297 -108 -3 -3 9 -50 28 -105 23
-71 38 -100 51 -103 15 -2 17 1 10 20 -4 13 -9 51 -12 85 -5 60 -5 61 31 90
33 27 132 71 141 63 12 -13 214 -624 208 -629 -4 -4 -25 -13 -45 -20 -36 -11
-53 -40 -25 -40 12 0 298 97 304 103 1 2 -2 8 -6 15 -6 10 -17 9 -51 -3 -24
-8 -47 -12 -51 -8 -8 9 -221 625 -217 628 10 10 118 35 148 35 46 0 83 -32
110 -95 12 -27 26 -45 36 -45 9 0 14 6 12 13 -3 6 -20 56 -39 110 -18 53 -36
97 -39 96 -3 0 -136 -46 -297 -102z"/>
<path d="M7647 11413 c-14 -13 -6 -20 33 -33 22 -7 40 -15 40 -17 0 -10 -233
-609 -240 -616 -4 -5 -24 -1 -44 7 -33 14 -38 14 -43 0 -3 -8 -4 -16 -2 -18
14 -11 281 -107 286 -103 12 13 -7 36 -37 42 -17 4 -33 12 -36 19 -4 10 97
290 109 302 2 2 76 -24 166 -59 149 -57 161 -64 156 -84 -11 -47 -107 -283
-115 -283 -4 0 -24 7 -43 15 -25 10 -38 12 -43 4 -3 -6 -2 -15 2 -19 8 -8 267
-110 279 -110 3 0 5 7 5 15 0 8 -18 22 -40 32 l-39 18 85 220 c46 121 101 261
120 312 l36 92 40 -16 c33 -13 41 -14 48 -2 5 7 8 14 7 16 -1 1 -66 26 -144
56 -115 44 -143 52 -147 40 -8 -20 -8 -23 4 -23 6 0 26 -6 44 -14 l34 -14 -53
-138 c-29 -76 -57 -140 -63 -142 -10 -3 -302 106 -316 119 -7 6 83 267 99 287
1 2 22 -5 45 -14 35 -14 43 -15 50 -3 5 7 8 14 7 15 -5 5 -269 104 -276 104
-4 0 -11 -3 -14 -7z"/>
<path d="M5825 10659 c-799 -48 -1576 -309 -2250 -754 -420 -278 -817 -652
-1129 -1064 -952 -1257 -1181 -2949 -599 -4421 368 -931 1037 -1723 1893
-2240 160 -97 506 -269 675 -335 792 -312 1676 -400 2505 -249 1132 207 2141
827 2837 1745 499 658 804 1430 900 2281 24 214 24 731 0 946 -86 764 -335
1451 -750 2071 -307 459 -720 879 -1187 1209 -248 174 -638 384 -925 497 -624
246 -1299 354 -1970 314z m665 -120 c1351 -114 2593 -853 3343 -1990 396 -601
630 -1259 714 -2001 24 -212 24 -694 0 -906 -62 -548 -202 -1038 -432 -1507
-581 -1185 -1662 -2056 -2938 -2370 -833 -204 -1697 -168 -2508 105 -246 83
-538 214 -774 348 -136 77 -444 286 -569 386 -806 646 -1361 1531 -1580 2521
-77 348 -101 581 -100 975 0 419 32 694 124 1066 311 1261 1165 2329 2330
2915 581 291 1141 436 1840 473 99 5 409 -3 550 -15z"/>
<path d="M5797 10290 c-1173 -92 -2223 -640 -2966 -1549 -487 -597 -794 -1317
-902 -2111 -30 -225 -37 -672 -15 -910 93 -970 497 -1846 1171 -2539 668 -686
1514 -1110 2475 -1242 219 -29 698 -38 930 -15 1162 111 2200 675 2920 1586
415 526 699 1149 824 1810 167 882 49 1788 -338 2595 -219 456 -499 842 -872
1204 -668 648 -1518 1047 -2464 1156 -158 19 -606 27 -763 15z m243 -650 l0
-490 55 0 55 0 0 491 0 491 79 -3 c44 -2 82 -6 84 -9 5 -4 -42 -722 -58 -902
l-6 -68 55 0 c54 0 55 0 60 33 3 17 17 208 31 422 14 215 28 417 32 450 l5 61
75 -7 c41 -4 78 -10 81 -14 6 -5 -112 -886 -124 -927 -5 -16 2 -18 53 -18 l59
0 64 463 c35 254 65 464 67 466 3 4 155 -18 161 -23 1 -2 -41 -204 -93 -450
-52 -246 -95 -450 -95 -452 0 -3 26 -4 57 -2 l56 3 92 433 c51 238 95 435 98
438 5 5 145 -23 155 -31 2 -2 -223 -800 -235 -832 -4 -10 11 -13 54 -13 l59 0
113 398 c63 218 117 401 121 406 7 6 123 -24 151 -40 4 -2 -55 -174 -131 -381
l-137 -378 54 -3 c31 -2 57 -1 60 2 3 3 63 163 133 356 70 193 131 354 134
357 9 10 146 -47 146 -61 0 -6 -63 -153 -140 -326 -77 -173 -140 -318 -140
-322 0 -4 26 -8 58 -8 l57 0 114 258 c63 141 125 280 138 309 l24 52 67 -30
c37 -17 70 -33 74 -37 6 -6 -72 -160 -233 -459 l-50 -93 64 0 64 0 128 243
c70 133 130 244 132 247 5 5 132 -61 140 -73 2 -4 -52 -99 -121 -210 l-126
-202 56 -3 c31 -2 62 -1 68 1 6 3 58 79 115 171 57 91 107 168 112 171 5 3 38
-14 74 -38 l65 -44 -86 -119 c-48 -65 -91 -125 -96 -131 -8 -10 5 -13 60 -13
l71 0 68 95 c37 52 72 95 77 95 9 0 113 -77 121 -91 3 -4 -11 -27 -31 -51 -34
-40 -35 -43 -16 -46 18 -3 21 -11 24 -59 l3 -56 55 66 c30 37 58 67 62 67 4 0
33 -24 65 -54 l58 -54 -122 -125 -123 -124 0 -80 0 -81 148 150 c81 82 151
156 155 164 4 8 13 14 20 14 12 0 117 -99 117 -110 0 -4 -99 -95 -220 -204
l-220 -198 0 -75 0 -75 78 70 c331 299 437 392 443 392 10 0 99 -106 99 -118
0 -6 -139 -119 -310 -253 l-310 -242 0 -68 c0 -38 2 -69 3 -69 2 0 159 121
348 270 l344 269 35 -40 c20 -22 43 -52 52 -67 l16 -27 -399 -268 -399 -269 0
-64 c0 -35 3 -64 6 -64 3 0 193 127 422 281 229 155 422 283 428 286 6 2 31
-26 54 -63 38 -58 42 -68 28 -78 -8 -6 -223 -130 -476 -276 l-461 -265 -1 -62
c0 -35 3 -63 6 -63 3 0 228 128 499 285 272 157 498 285 504 285 11 0 83 -129
77 -139 -3 -4 -248 -126 -545 -271 l-541 -263 0 -59 c0 -53 2 -59 18 -53 11 3
268 127 571 275 304 149 554 270 556 270 5 0 68 -151 64 -154 -2 -2 -275 -113
-606 -247 l-603 -243 0 -58 c0 -32 2 -58 5 -58 2 0 283 113 625 251 341 137
623 248 628 245 9 -6 57 -144 52 -150 -3 -2 -297 -99 -654 -215 -357 -116
-651 -213 -653 -215 -2 -2 -3 -28 -1 -59 l3 -55 670 218 c369 120 673 215 677
212 12 -13 48 -146 41 -152 -5 -4 -320 -85 -700 -180 l-693 -172 0 -58 0 -58
712 179 c392 98 714 176 716 174 9 -8 39 -156 33 -159 -3 -2 -333 -62 -733
-132 l-728 -128 0 -53 c0 -47 2 -53 21 -53 12 0 340 56 729 125 389 69 715
125 723 125 11 0 18 -19 27 -70 6 -38 10 -75 8 -82 -3 -9 -220 -35 -734 -90
-401 -42 -739 -77 -751 -77 -21 -1 -23 -6 -23 -56 0 -53 1 -55 28 -55 15 1
357 36 760 78 403 43 735 75 736 72 2 -3 7 -40 11 -82 l7 -76 -54 -6 c-29 -3
-343 -15 -698 -26 -355 -11 -678 -23 -717 -26 l-73 -6 0 -55 0 -55 118 6 c109
6 1168 43 1347 47 l80 2 3 -81 3 -82 -84 0 c-90 0 -1131 35 -1339 45 l-128 6
0 -54 0 -55 73 -6 c39 -3 371 -15 737 -27 366 -11 680 -22 698 -25 l33 -5 -3
-82 -3 -82 -35 3 c-19 2 -356 37 -747 78 -392 41 -722 74 -733 74 -18 0 -20
-7 -20 -55 0 -46 3 -55 18 -55 53 -1 1493 -157 1498 -163 4 -3 3 -41 -2 -84
-9 -76 -10 -78 -34 -75 -14 2 -343 60 -732 128 -388 68 -715 124 -727 124 -18
0 -21 -6 -21 -49 0 -28 4 -52 8 -55 4 -2 334 -62 732 -132 399 -69 729 -130
734 -134 11 -11 -15 -151 -29 -156 -7 -3 -327 74 -713 171 -386 96 -709 175
-717 175 -11 0 -15 -12 -15 -54 l0 -54 710 -177 c550 -138 710 -181 710 -193
0 -8 -9 -45 -20 -82 l-20 -68 -168 54 c-92 30 -401 130 -687 223 l-520 169 -3
-55 c-2 -30 -1 -57 1 -59 2 -2 302 -101 667 -219 365 -118 666 -218 669 -220
8 -9 -40 -146 -53 -151 -6 -2 -296 110 -644 251 -347 140 -634 255 -637 255
-3 0 -5 -26 -5 -58 l0 -58 593 -239 c325 -131 606 -245 624 -252 l32 -13 -32
-75 c-18 -42 -36 -75 -42 -76 -5 0 -270 127 -588 282 -317 155 -580 279 -584
275 -4 -4 -7 -30 -8 -58 l0 -51 559 -273 c308 -151 564 -275 569 -277 7 -2
-52 -136 -68 -155 -1 -1 -242 136 -536 306 -336 194 -537 304 -541 297 -3 -6
-8 -32 -10 -59 l-3 -48 510 -294 c281 -162 511 -299 513 -304 3 -9 -65 -127
-78 -135 -4 -3 -135 81 -291 187 -614 413 -670 450 -675 445 -3 -3 -11 -28
-18 -55 l-14 -50 464 -313 c255 -172 464 -316 464 -319 0 -13 -92 -131 -100
-128 -5 2 -196 149 -425 328 -229 179 -420 326 -423 327 -4 2 -14 -22 -23 -53
l-17 -55 172 -134 c94 -74 277 -217 406 -318 129 -101 235 -189 235 -195 0
-15 -85 -122 -97 -122 -7 0 -517 453 -728 646 l-25 23 -22 -55 -21 -55 351
-316 c194 -174 356 -320 361 -324 10 -9 -91 -124 -108 -124 -6 0 -153 146
-326 325 -173 179 -317 326 -320 327 -3 2 -17 -20 -31 -47 l-27 -50 186 -193
c102 -105 242 -249 311 -319 l125 -128 -39 -41 c-22 -22 -51 -49 -65 -59 l-25
-18 -270 324 c-148 177 -274 322 -279 320 -5 -1 -21 -23 -35 -47 l-25 -46 263
-312 c145 -172 259 -316 255 -320 -33 -29 -117 -91 -124 -91 -5 0 -111 140
-235 310 -125 171 -228 310 -229 310 -1 0 -17 -20 -35 -45 -20 -29 -29 -50
-24 -58 4 -7 101 -142 216 -299 114 -157 207 -289 207 -292 0 -11 -134 -96
-141 -88 -4 4 -87 135 -184 292 -98 157 -180 287 -182 290 -3 3 -22 -15 -43
-39 l-38 -43 174 -278 c96 -153 174 -282 174 -288 0 -6 -31 -28 -70 -50 l-69
-41 -44 82 c-25 45 -91 170 -147 277 -57 107 -105 197 -107 200 -2 2 -22 -14
-45 -37 l-40 -41 142 -267 c78 -146 140 -268 138 -270 -12 -10 -130 -65 -141
-65 -9 0 -56 95 -122 243 -59 133 -110 247 -114 254 -4 7 -21 -1 -49 -26 l-44
-37 106 -238 c58 -131 106 -242 106 -246 0 -7 -151 -73 -155 -67 -2 1 -40 106
-86 232 -45 127 -84 232 -85 234 -2 2 -55 -33 -87 -59 -6 -5 91 -288 148 -431
5 -14 -8 -22 -72 -43 -43 -14 -81 -26 -84 -26 -3 0 -32 94 -65 209 l-59 210
-47 -26 c-27 -15 -48 -31 -48 -37 0 -6 24 -96 54 -199 29 -103 51 -189 47
-191 -3 -2 -39 -11 -80 -21 -51 -12 -75 -14 -80 -7 -4 6 -22 84 -40 174 -19
90 -37 167 -41 171 -8 9 -100 -28 -100 -40 0 -4 16 -82 35 -172 20 -90 34
-165 33 -167 -2 -1 -40 -9 -85 -17 l-81 -14 -6 31 c-3 17 -13 87 -22 156 -9
69 -18 127 -20 129 -7 8 -104 -32 -104 -42 1 -7 9 -73 20 -147 12 -90 15 -137
8 -141 -13 -8 -149 -21 -156 -15 -2 3 -9 62 -14 133 -5 70 -11 130 -13 132 -2
2 -27 -2 -55 -9 l-52 -12 7 -97 c3 -53 8 -111 11 -128 l5 -33 -91 0 -90 0 0
113 0 112 -55 0 -55 0 0 -112 0 -113 -86 0 -86 0 6 77 c4 43 9 101 12 129 l5
50 -52 12 c-29 7 -54 10 -57 8 -2 -3 -8 -62 -14 -133 -5 -70 -11 -129 -12
-131 -5 -4 -157 15 -163 22 -5 4 19 196 33 266 4 23 0 28 -46 44 -28 10 -53
16 -56 14 -2 -3 -14 -72 -25 -154 -12 -82 -23 -151 -25 -153 -5 -5 -155 17
-162 24 -4 4 49 271 64 327 4 12 -8 22 -42 37 -26 12 -50 21 -54 21 -3 0 -23
-80 -44 -177 -20 -97 -38 -178 -40 -180 -4 -5 -140 27 -155 36 -6 4 11 78 45
196 30 104 54 192 54 195 0 3 -22 17 -48 32 l-49 27 -57 -197 c-31 -108 -59
-202 -61 -209 -3 -9 -26 -5 -82 14 -43 14 -79 27 -81 28 -1 1 33 101 77 221
l79 219 -21 16 c-11 9 -33 24 -48 33 l-27 16 -83 -230 c-46 -127 -88 -230 -94
-230 -22 0 -145 56 -145 66 0 6 47 116 105 245 l106 234 -43 37 c-24 20 -46
34 -49 30 -3 -4 -54 -117 -114 -252 -59 -135 -109 -247 -112 -249 -4 -5 -143
60 -149 70 -2 4 59 125 136 270 l140 263 -37 38 c-20 21 -40 38 -43 38 -3 0
-68 -116 -143 -258 -75 -141 -143 -266 -150 -276 -13 -18 -17 -17 -85 23 l-72
42 49 77 c242 387 301 483 301 491 0 5 -16 28 -35 51 l-34 41 -44 -68 c-24
-37 -108 -172 -187 -299 l-144 -231 -69 45 c-44 30 -66 50 -62 60 3 7 100 144
216 303 l210 289 -31 45 c-17 25 -34 45 -38 45 -4 -1 -108 -140 -231 -310
-124 -171 -227 -310 -230 -310 -4 0 -35 23 -69 51 -57 46 -62 53 -49 67 109
127 500 597 503 607 3 7 -8 34 -23 59 l-29 46 -273 -325 c-150 -179 -276 -325
-279 -325 -4 1 -34 25 -67 54 l-59 54 189 197 c105 108 245 254 311 324 l122
127 -27 52 -26 52 -324 -336 -325 -336 -60 62 -60 62 29 26 c17 14 179 160
362 324 l332 299 -20 52 c-11 29 -22 53 -23 55 -2 1 -171 -149 -377 -334
l-374 -336 -39 43 c-55 62 -71 89 -59 97 5 4 191 148 412 321 237 186 400 319
397 326 -2 7 -10 31 -17 54 -7 23 -15 41 -18 41 -3 0 -197 -149 -430 -331
-233 -182 -427 -327 -431 -322 -29 31 -89 128 -83 134 5 4 213 145 463 314
494 333 462 304 439 388 l-10 37 -322 -217 c-177 -119 -394 -266 -482 -325
l-159 -109 -43 68 c-23 38 -43 71 -43 74 0 4 232 141 516 305 l516 297 -7 56
c-4 31 -8 57 -10 59 -2 2 -238 -133 -526 -299 -288 -166 -530 -304 -539 -306
-11 -3 -25 16 -50 66 -18 39 -31 74 -27 78 4 4 258 129 565 278 l557 272 0 59
c0 34 -4 58 -10 57 -5 -1 -270 -128 -587 -283 -317 -155 -581 -279 -586 -276
-10 6 -67 145 -61 149 2 2 282 116 622 253 l617 249 0 57 c0 32 -3 58 -6 58
-3 0 -285 -113 -627 -251 -342 -139 -629 -254 -638 -256 -12 -3 -23 14 -44 72
-15 42 -25 78 -23 80 4 4 1325 435 1334 435 2 0 4 27 4 61 0 53 -2 60 -17 55
-55 -22 -1339 -436 -1350 -436 -7 0 -17 19 -23 43 -6 23 -15 55 -20 71 -6 16
-10 32 -10 36 0 4 320 87 710 185 l710 177 0 58 0 58 -720 -181 c-397 -99
-723 -178 -725 -175 -10 10 -35 152 -28 158 5 4 338 65 741 136 l732 128 0 57
0 56 -52 -9 c-29 -5 -366 -64 -748 -132 l-695 -123 -6 31 c-4 17 -10 54 -13
83 l-7 52 33 6 c33 5 1457 155 1477 155 7 0 11 22 11 55 0 53 -1 55 -27 54
-16 0 -359 -35 -763 -78 -404 -43 -736 -77 -737 -77 -1 1 -5 38 -9 83 l-7 81
64 6 c35 3 359 15 719 26 360 11 679 23 708 26 l52 5 0 55 0 55 -102 -6 c-57
-3 -373 -14 -703 -25 -330 -11 -630 -21 -667 -23 l-68 -4 0 83 0 84 68 0 c37
0 380 -11 762 -25 382 -14 698 -25 703 -25 4 0 7 24 7 54 l0 53 -82 6 c-46 4
-391 16 -766 29 l-684 22 4 77 c1 43 6 81 10 85 4 4 337 -28 740 -70 403 -42
743 -76 756 -76 20 0 22 5 22 55 0 37 -4 55 -12 55 -14 0 -1492 153 -1495 155
-5 2 20 151 26 158 6 6 1342 -222 1459 -248 21 -5 22 -2 22 52 l0 58 -727 127
c-399 70 -728 130 -731 132 -10 10 30 156 42 156 12 0 1373 -335 1404 -345 9
-3 12 12 12 53 l0 58 -678 168 c-372 93 -687 172 -699 177 l-21 8 22 72 c12
40 27 74 33 76 6 2 301 -90 654 -205 354 -115 654 -212 667 -216 21 -7 22 -5
22 51 l0 59 -645 209 c-355 115 -650 212 -656 216 -8 5 -3 29 16 80 15 41 29
75 30 76 1 2 280 -110 620 -247 340 -138 622 -250 627 -250 4 0 8 26 8 58 l0
57 -595 239 c-327 132 -599 242 -605 246 -11 7 48 150 61 150 5 0 185 -86 401
-191 216 -106 471 -229 566 -275 l172 -83 0 62 0 62 -545 265 c-300 145 -545
265 -545 267 0 7 73 134 79 137 4 3 232 -125 507 -283 l499 -289 3 61 c2 44
-1 64 -11 72 -8 5 -222 129 -475 275 -254 146 -461 267 -461 270 0 3 19 35 42
72 l43 68 424 -286 c233 -157 428 -288 432 -290 4 -3 8 25 8 63 l0 68 -399
269 -399 268 46 64 c25 35 49 64 53 64 4 0 163 -121 353 -270 l346 -270 0 73
-1 72 -314 244 -314 244 26 31 c14 17 39 46 54 64 l29 33 248 -224 c136 -122
253 -226 260 -231 9 -5 12 10 12 66 l-1 73 -219 195 c-120 107 -219 198 -220
201 0 3 25 32 55 65 l54 59 165 -170 165 -170 0 79 1 78 -120 125 c-66 69
-120 128 -120 132 0 5 27 31 59 60 l60 51 58 -71 58 -70 3 60 c3 54 5 61 23
61 18 0 16 5 -15 42 -20 23 -36 45 -36 49 0 6 86 74 117 92 7 5 37 -28 80 -88
l68 -95 69 0 68 0 -18 28 c-10 15 -47 68 -84 117 -36 50 -69 95 -73 102 -6 10
52 57 119 96 7 4 54 -63 120 -168 l109 -175 63 0 c47 0 63 3 59 13 -2 6 -59
98 -125 204 l-121 192 72 41 c65 38 71 40 81 23 6 -10 65 -119 131 -243 l120
-225 63 -3 c34 -2 62 -1 62 2 0 3 -63 123 -140 267 -77 145 -140 265 -140 269
0 6 126 70 139 70 4 0 68 -134 141 -297 73 -164 136 -302 140 -306 4 -4 32 -7
63 -5 l56 3 -144 325 c-80 178 -142 327 -137 331 13 13 134 59 142 54 4 -2 65
-164 136 -360 l129 -355 58 0 c31 0 57 2 57 5 0 3 -61 172 -135 377 -75 204
-132 375 -128 379 11 9 143 52 148 48 1 -2 55 -184 118 -404 l114 -400 58 -3
57 -3 -7 28 c-3 15 -56 201 -116 412 -61 211 -108 390 -105 397 4 10 145 50
151 42 2 -4 185 -862 185 -872 0 -3 26 -6 58 -6 l58 0 -93 438 c-51 240 -93
444 -93 453 0 12 18 19 76 28 42 7 77 11 79 9 3 -2 31 -197 64 -434 34 -236
63 -444 66 -461 6 -33 7 -33 60 -33 30 0 55 3 55 7 0 5 -29 217 -65 472 -36
255 -64 465 -62 467 2 3 40 7 83 10 l79 7 29 -414 c15 -228 30 -444 33 -481
l6 -68 53 0 c53 0 54 1 54 29 0 15 -13 218 -30 451 -16 233 -30 438 -30 456 0
37 8 40 103 43 l57 1 0 -490z"/>
<path d="M6917 8913 c-14 -14 -38 -19 -112 -21 -86 -4 -95 -6 -95 -23 0 -16 8
-19 55 -19 l55 0 0 -211 0 -212 -43 40 c-53 49 -104 67 -163 59 -86 -11 -158
-67 -204 -156 -63 -124 -39 -274 58 -362 52 -47 70 -56 133 -68 68 -13 127 2
178 47 l41 35 0 -36 0 -36 105 0 c98 0 105 1 105 20 0 17 -7 20 -45 20 l-45 0
-2 470 c-3 452 -4 470 -21 453z m-220 -434 c38 -14 71 -46 96 -94 19 -35 22
-56 22 -165 0 -108 -3 -130 -21 -160 -40 -69 -122 -103 -196 -81 -33 10 -43
20 -60 58 -18 40 -19 62 -16 206 4 175 12 208 57 232 31 17 80 19 118 4z"/>
<path d="M3640 8866 c0 -13 12 -16 60 -16 l60 0 0 -430 0 -430 -60 0 c-54 0
-60 -2 -60 -21 0 -20 3 -20 268 -17 254 3 269 4 317 26 123 57 177 171 141
295 -20 68 -77 122 -157 151 l-53 20 44 14 c106 34 155 107 148 218 -5 79 -39
125 -123 169 l-59 30 -263 3 c-234 3 -263 2 -263 -12z m379 -26 c124 -18 186
-90 179 -209 -6 -116 -56 -158 -203 -168 l-85 -6 0 197 0 196 23 0 c12 0 51
-5 86 -10z m90 -448 c80 -40 104 -89 99 -200 -4 -71 -8 -88 -34 -124 -43 -61
-83 -78 -181 -78 l-83 0 0 221 0 222 73 -7 c49 -4 89 -15 126 -34z"/>
<path d="M7745 8805 c-14 -13 -25 -36 -25 -50 0 -14 11 -37 25 -50 13 -14 36
-25 50 -25 14 0 37 11 50 25 14 13 25 36 25 50 0 14 -11 37 -25 50 -13 14 -36
25 -50 25 -14 0 -37 -11 -50 -25z"/>
<path d="M7837 8523 c-14 -14 -38 -19 -112 -21 -86 -4 -95 -6 -95 -23 0 -16 8
-19 50 -19 l50 0 0 -235 0 -235 -50 0 c-43 0 -50 -3 -50 -20 0 -19 7 -20 165
-20 158 0 165 1 165 20 0 17 -7 20 -50 20 l-50 0 -2 275 c-3 265 -4 275 -21
258z"/>
<path d="M4640 8515 c-16 -9 -57 -14 -112 -15 -81 0 -88 -2 -88 -20 0 -18 7
-20 55 -20 l55 0 0 -235 0 -235 -55 0 c-48 0 -55 -2 -55 -20 0 -19 7 -20 175
-20 168 0 175 1 175 20 0 18 -7 20 -61 20 l-61 0 4 173 c4 194 16 237 84 297
43 37 55 38 45 2 -17 -57 30 -103 83 -82 47 18 59 71 26 113 -46 58 -156 39
-210 -35 l-29 -40 -3 55 -3 55 -25 -13z"/>
<path d="M5155 8517 c-85 -28 -125 -73 -125 -142 0 -63 57 -95 108 -59 29 20
29 70 0 101 l-22 23 22 22 c32 32 137 38 172 10 23 -18 25 -29 28 -110 l4 -89
-84 -6 c-144 -10 -234 -55 -263 -131 -48 -126 60 -225 213 -196 55 10 86 23
113 47 15 12 20 10 45 -15 36 -36 88 -47 139 -30 46 16 85 62 67 80 -9 9 -17
5 -36 -15 -28 -30 -61 -35 -70 -11 -3 9 -6 105 -6 213 0 189 -1 200 -22 231
-47 69 -189 108 -283 77z m185 -366 c0 -89 -18 -128 -73 -154 -51 -24 -93 -22
-122 8 -21 20 -25 34 -25 87 0 96 28 126 130 137 89 11 90 10 90 -78z"/>
<path d="M5796 8514 c-14 -10 -48 -14 -114 -14 -84 0 -93 -2 -90 -17 2 -14 15
-19 56 -21 l52 -3 0 -234 0 -234 -52 -3 c-41 -2 -54 -7 -56 -20 -3 -17 10 -18
162 -18 159 0 166 1 166 20 0 17 -7 20 -50 20 l-50 0 0 175 c0 191 1 194 64
263 40 43 76 62 120 62 63 0 66 -14 66 -272 l0 -228 -50 0 c-43 0 -50 -3 -50
-20 0 -19 7 -20 165 -20 158 0 165 1 165 20 0 17 -7 20 -50 20 l-50 0 0 210
c0 193 -2 214 -21 251 -22 44 -59 65 -132 75 -65 9 -123 -11 -178 -63 l-48
-45 -3 55 c-3 53 -4 55 -22 41z"/>
<path d="M7244 8506 c-147 -68 -209 -275 -129 -432 92 -180 352 -188 439 -13
30 62 34 92 9 87 -9 -2 -22 -21 -30 -45 -27 -80 -129 -143 -211 -129 -75 12
-102 66 -102 200 l0 96 173 2 c172 3 172 3 175 26 5 36 -44 127 -93 170 -74
65 -147 77 -231 38z m144 -36 c23 -22 42 -78 42 -127 l0 -33 -105 0 -105 0 0
40 c0 52 21 103 51 124 33 22 90 21 117 -4z"/>
<path d="M8156 8520 c-74 -23 -125 -116 -112 -205 13 -85 56 -113 199 -130 66
-8 102 -32 110 -72 19 -95 -64 -164 -163 -134 -61 18 -120 93 -120 152 0 12
-7 19 -20 19 -19 0 -20 -7 -20 -105 0 -98 1 -105 20 -105 15 0 20 7 20 25 0
31 1 31 56 -1 33 -19 59 -26 102 -27 120 -2 195 76 196 203 1 107 -45 154
-163 165 -131 12 -161 29 -161 90 0 55 35 87 101 92 73 6 118 -22 139 -90 11
-34 20 -47 34 -47 15 0 17 5 12 31 -3 17 -6 56 -6 85 0 41 -4 54 -15 54 -8 0
-15 -7 -15 -15 0 -20 -9 -19 -61 5 -47 21 -86 24 -133 10z"/>
<path d="M3763 7458 c4 -215 7 -875 7 -1467 1 -1067 1 -1076 20 -1024 25 70
70 146 122 209 333 397 973 316 1197 -151 21 -44 43 -91 49 -105 11 -25 11
-25 11 6 1 50 49 201 87 278 99 198 284 371 483 451 219 89 483 90 701 4 283
-113 513 -383 574 -675 13 -63 26 -93 26 -62 0 29 88 192 133 247 98 117 261
217 407 247 114 24 271 15 379 -21 199 -67 376 -237 447 -428 l23 -62 0 1473
1 1472 -2337 0 -2336 0 6 -392z m2618 96 c-44 -51 -81 -147 -81 -213 0 -54 23
-122 57 -172 107 -156 122 -294 48 -442 -39 -77 -79 -119 -173 -181 -128 -85
-172 -157 -172 -281 0 -82 36 -153 107 -211 28 -23 57 -44 64 -46 8 -3 11 -9
7 -12 -10 -12 -156 32 -246 74 -162 76 -240 159 -284 303 -53 176 18 326 219
461 40 26 88 66 108 87 56 63 67 98 74 254 6 130 9 144 36 195 39 70 115 145
195 193 36 20 68 37 73 37 5 0 -10 -21 -32 -46z m-293 -81 c-62 -64 -80 -119
-89 -275 -9 -155 -19 -187 -80 -253 -37 -40 -189 -145 -211 -145 -4 0 7 21 25
46 l32 46 6 181 c4 133 10 191 21 217 23 51 71 114 112 145 47 36 143 74 186
75 l34 0 -36 -37z m-1405 -295 c-54 -56 -87 -141 -87 -228 0 -81 5 -94 74
-201 76 -118 92 -227 51 -351 -33 -99 -87 -167 -184 -232 -45 -30 -94 -67
-108 -83 -74 -78 -99 -208 -59 -301 21 -49 126 -162 151 -162 5 0 9 -4 9 -9 0
-13 -106 13 -199 49 -200 77 -313 203 -344 384 -24 143 53 281 220 392 158
105 184 152 192 344 6 122 9 141 35 193 35 72 111 149 197 200 78 46 93 47 52
5z m3320 -21 c-49 -53 -75 -128 -75 -213 0 -75 11 -106 69 -193 57 -86 78
-150 76 -236 -3 -156 -81 -281 -233 -373 -78 -47 -113 -89 -140 -165 -47 -134
-8 -247 118 -338 46 -33 51 -39 31 -39 -47 0 -247 77 -322 123 -90 57 -119 89
-164 182 -48 101 -59 176 -39 256 29 113 92 188 238 287 138 93 168 151 168
323 0 129 20 193 84 272 42 52 184 157 213 157 10 0 2 -15 -24 -43z m-3626
-76 c-66 -73 -76 -105 -86 -277 -13 -195 -41 -244 -206 -345 -86 -53 -110 -61
-78 -26 50 54 57 82 62 272 6 178 6 180 37 235 17 30 52 72 76 93 53 44 148
86 197 87 l33 0 -35 -39z m3363 31 c0 -4 -15 -23 -34 -41 -59 -57 -77 -116
-85 -271 -6 -111 -12 -145 -30 -183 -27 -55 -90 -114 -182 -168 -77 -46 -104
-51 -66 -11 46 48 57 99 57 261 0 109 4 160 16 194 19 57 90 138 152 174 64
38 172 66 172 45z m-1114 -439 c13 -61 14 -81 4 -125 -31 -130 -104 -225 -215
-278 -112 -54 -141 -117 -89 -193 l25 -38 -38 16 c-149 62 -194 261 -81 361
12 11 56 42 96 68 101 66 177 171 201 277 26 117 20 111 52 44 16 -33 36 -92
45 -132z m-1737 -292 c41 -107 48 -170 26 -250 -35 -121 -112 -210 -227 -260
-90 -39 -119 -107 -74 -173 29 -43 22 -47 -33 -18 -80 40 -125 121 -119 211 6
81 39 126 143 194 46 31 100 75 119 98 45 56 93 158 107 229 6 32 15 55 20 53
4 -3 21 -41 38 -84z m3337 -21 c35 -100 40 -163 19 -236 -35 -119 -108 -204
-221 -255 -98 -45 -126 -104 -79 -173 14 -21 24 -40 21 -43 -8 -9 -81 36 -113
69 -111 116 -74 269 87 360 103 59 196 194 221 321 10 50 14 56 26 44 8 -7 25
-46 39 -87z"/>
<path d="M6623 4508 c-3 -233 -8 -219 95 -302 l69 -56 -42 -43 c-25 -27 -47
-61 -54 -88 -7 -24 -15 -137 -18 -251 l-6 -208 144 0 c79 0 154 -3 167 -6 22
-6 22 -6 22 115 l0 121 -92 -6 c-51 -2 -108 -7 -127 -9 l-33 -4 4 129 c4 150
18 183 79 188 29 2 47 -8 129 -73 116 -93 338 -294 403 -365 81 -88 81 -87 74
-206 -7 -99 -6 -104 13 -104 19 0 20 7 20 248 0 184 -3 252 -12 264 -7 8 -56
50 -108 93 -52 43 -95 83 -95 89 0 5 47 36 104 67 58 32 108 64 113 71 4 7 8
68 8 136 0 90 4 131 15 152 l16 30 -121 0 c-142 0 -126 24 -135 -205 -6 -153
-7 -161 -30 -185 -23 -23 -27 -24 -49 -10 -41 25 -346 283 -434 366 l-82 79 0
88 c0 76 -2 87 -17 87 -17 0 -18 -17 -20 -202z"/>
<path d="M4716 4499 c1 -169 3 -203 17 -216 12 -12 45 -17 141 -21 l125 -5
-22 -29 c-21 -28 -22 -42 -25 -245 l-3 -215 -117 3 -117 4 -3 -112 -3 -113
151 -1 c82 -1 155 -2 161 -3 7 -1 10 97 10 309 -1 230 2 316 12 335 6 14 30
34 52 45 35 18 60 20 216 20 163 0 179 -2 199 -20 l22 -20 -5 -310 c-3 -170
-9 -323 -13 -338 l-7 -28 53 3 53 3 4 380 c5 443 2 474 -37 518 l-28 32 -364
7 c-200 4 -379 11 -398 16 l-35 8 -3 97 c-2 84 -5 97 -20 97 -16 0 -17 -17
-16 -201z"/>
<path d="M5721 4543 c2 -260 -2 -245 95 -338 l83 -80 -40 -105 c-23 -58 -69
-187 -104 -287 l-63 -183 52 0 52 0 29 108 c44 163 139 461 165 515 32 69 54
79 169 85 151 7 249 -5 277 -34 24 -23 24 -26 24 -240 l0 -217 -215 7 -215 7
-1 -106 c-1 -58 -2 -109 -3 -114 -1 -5 108 -12 255 -14 l256 -5 1 431 c1 329
-1 438 -11 457 -8 15 -28 30 -51 38 -58 19 -270 33 -361 25 l-80 -8 -5 -80
c-3 -44 -8 -85 -12 -90 -4 -7 -60 40 -133 110 l-125 120 0 78 c0 71 -2 77 -20
77 -20 0 -21 -5 -19 -157z"/>
<path d="M3250 10487 c-41 -14 -80 -68 -80 -111 0 -77 79 -138 151 -117 98 29
121 154 39 212 -35 24 -69 29 -110 16z"/>
<path d="M8880 10462 c-95 -47 -85 -182 15 -216 142 -49 226 154 90 218 -42
20 -62 20 -105 -2z"/>
<path d="M1936 9848 l-207 -223 82 -78 c53 -50 86 -74 92 -68 6 6 -2 24 -22
50 -75 94 -62 144 76 291 l70 75 99 -92 c55 -50 108 -101 119 -113 l20 -22
-47 -44 c-55 -52 -91 -57 -136 -19 -23 19 -32 22 -40 12 -14 -17 194 -215 210
-199 7 7 2 21 -16 45 -37 49 -34 87 11 139 21 24 38 45 40 47 1 2 54 -45 117
-105 l116 -107 -63 -66 c-34 -36 -77 -77 -96 -91 -45 -33 -107 -34 -150 -2
-29 21 -51 22 -51 4 0 -7 135 -122 143 -122 2 0 88 90 191 200 134 144 186
206 182 217 -6 14 -12 11 -41 -17 l-34 -33 -63 59 c-35 32 -146 135 -246 228
l-182 170 31 32 c28 28 32 54 10 54 -4 0 -101 -100 -215 -222z"/>
<path d="M9940 9940 c-102 -18 -210 -125 -210 -208 0 -45 23 -101 84 -202 71
-117 73 -147 16 -201 -41 -39 -91 -56 -130 -44 -30 9 -88 62 -106 96 -7 15
-14 52 -14 82 0 43 7 64 35 112 55 91 30 93 -62 5 -43 -41 -80 -75 -82 -77 -2
-1 -1 -9 3 -18 4 -12 10 -14 25 -6 23 13 36 0 46 -49 26 -121 130 -203 236
-185 55 10 128 61 167 119 55 82 44 140 -58 297 -32 49 -40 72 -40 107 0 41 5
50 45 89 40 38 51 43 91 43 70 0 130 -41 168 -117 34 -67 12 -173 -48 -236
-19 -19 -24 -32 -18 -42 6 -12 28 3 105 76 90 84 123 131 80 114 -38 -14 -35
-17 -78 80 -52 120 -150 183 -255 165z"/>
<path d="M10594 9256 c-3 -8 6 -32 20 -52 14 -21 22 -41 18 -45 -4 -3 -130
-86 -281 -183 -307 -199 -275 -190 -325 -89 -39 79 -35 98 30 161 40 37 54 56
47 63 -8 8 -39 -8 -102 -50 -81 -55 -90 -64 -81 -81 9 -17 328 -510 335 -518
2 -2 46 24 98 58 68 43 94 66 90 76 -3 8 -8 13 -12 11 -126 -68 -159 -69 -219
-3 -51 55 -67 85 -54 98 6 6 131 89 279 184 266 172 268 174 283 152 35 -51
49 -63 59 -53 8 8 -15 52 -77 147 -48 76 -91 137 -95 138 -4 0 -10 -6 -13 -14z"/>
<path d="M1290 9046 c0 -7 101 -141 224 -298 123 -156 226 -293 230 -305 4
-13 1 -34 -8 -52 -20 -38 -20 -53 -1 -49 23 5 136 191 122 200 -18 12 -21 10
-41 -23 -12 -20 -24 -29 -37 -27 -17 3 -342 398 -334 406 2 2 117 -24 257 -57
140 -34 258 -61 261 -61 13 0 7 -22 -14 -51 -19 -27 -19 -49 1 -49 4 0 45 59
90 131 65 102 80 133 70 142 -9 9 -15 8 -24 -7 -38 -62 -3 -64 -415 29 -206
47 -375 85 -377 85 -2 0 -4 -6 -4 -14z"/>
<path d="M10990 8610 c0 -7 8 -25 17 -40 21 -37 14 -45 -80 -101 -132 -78
-157 -106 -157 -182 l0 -49 -46 41 c-26 23 -61 43 -80 47 -75 14 -151 -24
-184 -92 -36 -73 -28 -110 73 -343 65 -148 87 -184 103 -168 3 3 -4 26 -15 52
l-20 46 44 20 c25 11 161 72 302 135 142 62 260 114 264 114 3 0 14 -19 24
-42 24 -54 21 -51 38 -41 11 6 1 36 -52 156 -36 81 -71 147 -78 147 -18 0 -16
-22 4 -65 9 -19 14 -37 11 -40 -3 -3 -70 -34 -149 -70 l-144 -65 -17 38 c-46
100 -32 140 74 202 144 86 170 119 149 198 -17 62 -81 143 -81 102z m-253
-410 c29 -17 93 -110 93 -135 0 -6 -62 -37 -137 -71 l-138 -61 -17 31 c-58
106 -41 181 51 228 63 33 104 35 148 8z"/>
<path d="M980 8455 c-5 -14 -55 -137 -109 -273 -55 -136 -101 -253 -103 -261
-2 -9 29 -27 91 -52 52 -22 101 -39 108 -39 29 0 11 27 -32 48 -97 47 -104
109 -35 286 l41 105 47 -18 c144 -57 229 -92 241 -100 13 -8 12 -16 -4 -52
-39 -86 -72 -105 -138 -80 -34 13 -47 -15 -14 -29 128 -57 243 -97 249 -87 5
7 1 16 -8 22 -54 33 -74 58 -74 91 0 34 27 114 39 114 11 0 266 -103 275 -111
9 -8 -41 -142 -74 -197 -38 -63 -104 -85 -172 -57 -13 5 -18 2 -18 -12 0 -15
18 -24 87 -45 48 -15 88 -26 89 -25 6 8 204 509 204 517 0 26 -29 6 -43 -30
l-16 -41 -33 14 c-18 7 -154 62 -303 122 -148 60 -274 112 -278 115 -5 4 -1
24 7 45 19 45 19 42 1 49 -11 4 -19 -3 -25 -19z"/>
<path d="M11361 7678 c5 -18 9 -38 9 -45 0 -6 -144 -105 -320 -219 -251 -162
-318 -210 -308 -219 8 -7 151 -22 372 -39 197 -15 365 -30 373 -33 8 -3 17
-19 20 -34 6 -32 20 -46 33 -33 7 7 -34 207 -45 222 -1 1 -9 0 -18 -3 -12 -5
-13 -13 -6 -38 18 -63 15 -67 -48 -66 -32 0 -78 4 -102 7 l-45 7 -23 90 c-12
50 -22 95 -22 100 0 8 140 102 169 113 4 2 13 -17 19 -42 8 -34 15 -44 26 -40
8 4 15 8 15 10 0 3 -16 70 -36 149 -30 120 -40 145 -55 145 -15 0 -16 -4 -8
-32z m-140 -400 c10 -40 19 -78 19 -83 0 -11 -54 -10 -210 4 l-75 6 120 77
c65 42 121 75 123 73 2 -2 12 -36 23 -77z"/>
<path d="M606 7423 c-9 -49 -19 -100 -22 -115 -9 -47 23 -35 36 13 6 22 18 43
26 46 13 5 536 -91 575 -106 10 -4 -121 -69 -352 -176 -203 -93 -369 -175
-369 -182 0 -16 -10 -13 350 -83 173 -34 321 -66 328 -72 9 -8 11 -24 6 -55
-5 -36 -4 -43 10 -43 9 0 16 1 16 3 0 1 9 48 20 105 24 122 24 122 6 122 -15
0 -26 -21 -26 -50 0 -42 -19 -42 -249 2 -122 24 -221 45 -221 49 0 3 127 65
282 137 l283 131 22 108 c20 101 19 134 -5 119 -5 -3 -13 -26 -17 -51 -5 -37
-10 -45 -23 -41 -9 3 -147 30 -307 61 -159 31 -297 58 -307 61 -23 7 -28 26
-18 68 7 31 5 36 -10 36 -14 0 -21 -17 -34 -87z"/>
<path d="M10990 6769 c-44 -18 -90 -71 -105 -123 -19 -63 -19 -86 2 -288 14
-144 19 -168 33 -168 14 0 16 8 12 50 -2 28 -3 50 -1 50 2 0 152 16 333 35
180 19 330 35 332 35 2 0 4 -20 4 -45 0 -32 5 -47 15 -52 9 -3 18 -4 20 -2 2
2 -4 77 -13 167 -14 135 -19 162 -32 160 -12 -3 -14 -15 -12 -56 2 -28 0 -52
-5 -52 -4 0 -66 -7 -138 -15 -71 -8 -134 -15 -140 -15 -6 0 -10 28 -11 63 -1
114 -57 222 -130 253 -38 16 -127 17 -164 3z m180 -127 c61 -30 102 -119 81
-174 -9 -23 -16 -25 -133 -36 -67 -7 -142 -15 -165 -18 l-43 -6 0 71 c0 79 15
119 53 144 58 38 152 47 207 19z"/>
<path d="M1143 5850 c4 -35 3 -50 -6 -50 -39 0 -500 -52 -539 -61 -101 -23
-137 -83 -138 -225 0 -185 67 -290 192 -302 29 -3 158 6 288 18 130 13 243 21
253 17 12 -4 17 -18 17 -42 0 -23 6 -38 15 -42 9 -3 18 -4 20 -1 4 4 -12 186
-21 226 -2 12 -11 22 -20 22 -13 0 -15 -8 -9 -48 5 -37 3 -51 -9 -61 -14 -12
-416 -61 -501 -61 -99 1 -168 68 -188 183 -10 60 -9 67 14 113 39 78 51 82
365 115 152 17 279 27 282 25 3 -3 7 -28 10 -56 5 -50 17 -65 29 -34 5 15 -12
224 -23 287 -3 16 -12 27 -21 27 -13 0 -15 -9 -10 -50z"/>
<path d="M10845 5257 c-2 -7 -33 -142 -70 -302 -36 -159 -68 -295 -70 -302 -4
-11 213 -68 223 -59 13 13 -10 33 -52 44 -52 14 -92 47 -102 86 -9 36 15 168
30 163 6 -2 154 -37 329 -77 264 -61 316 -76 313 -89 -3 -9 -8 -33 -12 -53 -5
-30 -3 -38 9 -38 14 0 25 39 84 296 3 13 -1 23 -10 27 -12 4 -18 -7 -27 -44
-7 -27 -17 -49 -24 -49 -12 0 -611 137 -633 145 -14 5 4 80 31 132 28 54 56
67 136 59 57 -5 70 -3 70 8 0 9 -18 18 -47 25 -27 5 -76 17 -111 25 -47 11
-64 12 -67 3z"/>
<path d="M1273 4962 c-9 -6 -9 -18 -1 -50 6 -24 9 -45 6 -47 -8 -9 -596 -185
-616 -185 -16 0 -24 10 -33 40 -12 39 -39 56 -39 24 0 -9 14 -60 31 -115 21
-69 35 -99 46 -99 11 0 14 7 9 25 -3 14 -9 35 -12 48 -3 14 0 28 8 34 16 12
547 175 559 171 5 -2 -99 -146 -231 -320 -217 -287 -265 -360 -227 -345 78 29
652 197 662 193 7 -2 18 -21 25 -40 6 -20 18 -36 26 -36 20 0 18 11 -19 127
-24 78 -35 100 -45 94 -11 -6 -11 -17 -3 -47 8 -29 8 -42 -2 -51 -12 -12 -429
-144 -436 -138 -1 2 79 113 179 246 101 133 185 249 187 259 4 13 -53 220 -60
220 -1 0 -7 -4 -14 -8z"/>
<path d="M10607 4377 c-2 -7 3 -20 11 -30 14 -16 11 -21 -41 -70 -63 -59 -87
-106 -87 -172 0 -91 51 -155 155 -194 124 -47 179 -20 281 137 55 85 99 122
145 122 41 0 110 -42 131 -80 41 -74 -4 -199 -87 -248 -39 -22 -86 -25 -204
-10 -13 2 -26 -2 -28 -7 -3 -9 98 -55 245 -112 19 -8 15 28 -5 42 -16 12 -13
18 35 69 156 164 119 354 -82 422 -66 23 -127 14 -174 -23 -20 -16 -63 -67
-94 -114 -65 -97 -108 -139 -142 -139 -65 0 -146 78 -146 140 1 69 78 163 145
176 20 3 63 3 96 0 77 -9 81 13 7 42 -29 11 -76 29 -105 41 -38 15 -53 17 -56
8z"/>
<path d="M1483 4032 c-51 -26 -93 -52 -93 -59 0 -17 3 -17 77 8 82 28 109 18
163 -63 22 -33 40 -65 40 -72 0 -11 -566 -306 -588 -306 -6 0 -13 8 -16 18
-11 31 -43 65 -55 58 -7 -5 10 -48 53 -134 75 -147 89 -168 104 -158 8 5 5 20
-10 51 -14 28 -18 48 -12 54 5 4 139 74 297 154 l288 147 26 -56 c51 -111 40
-155 -53 -213 -30 -18 -41 -30 -35 -39 6 -11 32 -2 110 38 l102 51 -145 282
c-79 155 -148 282 -153 284 -4 1 -50 -19 -100 -45z"/>
<path d="M10372 3675 c-67 -19 -84 -28 -134 -73 -64 -58 -92 -123 -92 -212 1
-100 29 -172 97 -246 60 -66 109 -99 185 -125 76 -26 194 -26 265 1 242 91
257 408 28 580 -100 75 -241 106 -349 75z m125 -104 c40 -16 110 -54 157 -85
165 -110 219 -212 166 -316 -68 -133 -245 -115 -476 48 -173 123 -204 272 -75
359 49 33 134 31 228 -6z"/>
<path d="M1835 3217 c-109 -29 -215 -108 -270 -201 -34 -59 -58 -160 -52 -218
14 -118 95 -219 202 -253 87 -27 201 -18 288 23 84 39 163 116 202 197 38 79
47 202 20 272 -24 63 -94 136 -156 163 -63 26 -167 34 -234 17z m277 -85 c73
-42 99 -143 58 -228 -64 -131 -315 -304 -442 -304 -89 0 -163 75 -163 165 1
65 32 119 112 197 162 159 335 227 435 170z"/>
<path d="M9822 2984 l-69 -76 122 -252 c68 -138 122 -252 120 -254 -1 -1 -118
43 -260 99 -191 76 -262 99 -274 92 -8 -5 -42 -40 -75 -77 -46 -51 -57 -69
-48 -78 9 -9 19 -4 41 22 l28 35 44 -40 c148 -132 429 -399 433 -412 3 -8 -3
-28 -15 -45 -14 -19 -18 -33 -12 -39 7 -7 37 18 87 72 51 56 73 86 66 93 -7 7
-19 1 -39 -18 -17 -17 -37 -26 -50 -24 -22 3 -416 361 -403 366 4 1 135 -48
291 -108 157 -61 290 -109 297 -106 9 3 -31 94 -127 292 -77 157 -139 288
-137 290 5 4 412 -375 417 -388 2 -5 -11 -24 -28 -42 -24 -25 -28 -35 -19 -44
9 -9 31 9 97 80 109 116 124 135 116 149 -5 7 -20 -1 -41 -22 l-33 -32 -43 38
c-24 22 -134 124 -246 229 l-203 189 31 32 c26 27 29 34 17 44 -12 9 -27 -2
-85 -65z"/>
<path d="M2927 2288 c-3 -8 9 -24 29 -38 19 -12 33 -27 32 -31 -7 -19 -402
-519 -411 -519 -5 0 -23 12 -39 26 -20 16 -34 22 -41 15 -14 -14 -6 -22 114
-116 77 -60 116 -84 127 -80 14 5 10 13 -22 40 l-39 33 194 248 c107 136 199
255 206 263 10 14 16 12 49 -11 35 -25 54 -28 54 -8 0 9 -210 177 -233 186 -8
3 -17 -1 -20 -8z"/>
<path d="M8962 2155 c-45 -21 -325 -216 -337 -234 -2 -4 0 -12 4 -19 5 -8 19
-3 50 19 23 17 43 30 45 28 54 -72 379 -524 382 -533 3 -7 -11 -24 -31 -37
-32 -22 -43 -49 -22 -51 5 0 67 41 138 92 101 74 126 96 118 107 -9 10 -19 7
-52 -17 -23 -17 -44 -27 -48 -23 -3 5 -44 60 -89 123 -46 63 -87 120 -92 126
-13 17 87 78 129 78 29 0 46 -12 121 -86 95 -94 116 -108 159 -108 31 0 105
43 138 79 16 19 17 24 5 31 -11 7 -20 4 -30 -9 -34 -42 -48 -36 -144 63 -100
103 -133 119 -207 99 l-37 -10 25 38 c37 56 47 111 28 156 -45 107 -141 140
-253 88z m109 -104 c50 -52 67 -98 55 -147 -7 -28 -100 -124 -119 -124 -10 0
-152 187 -179 234 -4 8 13 26 49 49 44 29 66 37 101 37 42 0 50 -4 93 -49z"/>
<path d="M3332 1876 c-29 -51 -52 -98 -52 -105 0 -24 27 -8 54 33 38 56 78 80
119 72 41 -8 137 -55 137 -66 0 -8 -304 -564 -317 -579 -2 -3 -21 5 -42 17
-45 26 -61 28 -61 8 0 -8 63 -48 141 -91 108 -59 143 -74 150 -64 5 9 -5 20
-34 38 -23 13 -44 25 -46 27 -4 3 306 564 319 578 10 10 94 -41 130 -79 30
-32 32 -83 5 -140 -23 -48 -24 -60 -7 -60 10 0 124 185 118 191 -1 2 -511 285
-542 302 -19 10 -25 4 -72 -82z"/>
<path d="M8098 1647 c-189 -93 -246 -125 -239 -135 7 -11 16 -10 49 7 l41 21
19 -43 c11 -23 77 -158 146 -300 70 -142 125 -261 122 -266 -3 -5 -19 -14 -36
-21 -28 -12 -42 -40 -20 -40 5 0 131 59 279 131 l269 131 -44 96 c-25 53 -47
98 -49 100 -2 3 -11 2 -20 -2 -14 -5 -14 -9 -2 -33 38 -74 25 -141 -34 -186
-51 -38 -220 -120 -229 -110 -4 4 -37 70 -74 146 l-65 138 55 25 c30 13 61 24
70 24 26 0 53 -19 69 -50 15 -30 45 -41 44 -17 0 6 -28 67 -62 134 -41 82 -66
120 -74 115 -9 -5 -9 -17 -1 -48 17 -63 5 -89 -55 -124 -28 -16 -54 -30 -57
-30 -6 0 -53 92 -106 208 l-34 72 79 40 c145 72 209 73 262 1 23 -31 50 -41
48 -18 -1 18 -82 150 -94 153 -5 1 -121 -52 -257 -119z"/>
<path d="M4168 1534 c-81 -25 -148 -131 -148 -236 0 -72 35 -114 162 -194 47
-30 93 -66 102 -79 22 -33 20 -88 -3 -134 -52 -102 -177 -106 -273 -10 -52 52
-64 90 -54 167 11 88 11 95 0 99 -6 2 -32 -52 -59 -123 -39 -101 -46 -127 -35
-134 9 -6 19 -2 28 11 13 19 16 18 65 -27 77 -70 143 -97 223 -92 50 3 72 10
106 34 81 57 132 208 95 280 -22 43 -64 81 -142 132 -97 61 -135 99 -135 134
0 76 64 148 132 148 117 0 203 -113 181 -237 -8 -41 -7 -53 4 -57 14 -6 28 21
73 142 12 34 20 66 16 69 -3 4 -17 0 -31 -7 -23 -12 -27 -10 -77 43 -42 43
-65 59 -107 71 -64 19 -62 19 -123 0z"/>
<path d="M7615 1450 c-33 -10 -79 -24 -102 -30 -26 -6 -43 -17 -43 -25 0 -17
13 -19 58 -6 28 8 34 7 46 -12 13 -20 126 -404 126 -427 0 -5 -84 56 -187 137
-104 81 -216 169 -250 195 l-62 49 -110 -32 c-84 -24 -108 -35 -104 -46 4 -9
14 -13 27 -9 11 2 33 8 47 11 l26 6 88 -309 c49 -170 85 -317 82 -326 -4 -9
-21 -19 -38 -23 -28 -5 -48 -27 -36 -39 10 -10 227 59 227 73 0 10 -12 12 -54
7 l-55 -7 -20 69 c-44 144 -148 514 -145 514 2 0 532 -414 632 -493 36 -28 25
28 -64 338 l-94 330 21 18 c12 9 29 17 38 17 23 0 31 9 24 26 -6 17 -2 17 -78
-6z"/>
<path d="M6653 1223 c-66 -4 -73 -6 -73 -24 0 -18 4 -20 38 -14 27 4 42 2 50
-7 10 -13 48 -437 40 -458 -2 -4 -94 100 -205 233 l-202 242 -93 -7 c-51 -3
-103 -7 -115 -7 -13 -1 -23 -7 -23 -16 0 -11 12 -15 50 -15 28 0 50 -1 51 -2
0 -2 11 -145 24 -318 14 -199 19 -321 13 -332 -6 -13 -21 -18 -49 -18 -33 0
-40 -3 -37 -17 2 -14 13 -17 58 -15 122 5 180 14 180 28 0 10 -13 14 -44 14
-24 0 -48 6 -54 13 -10 11 -57 585 -49 593 2 2 120 -136 262 -306 143 -171
265 -310 272 -310 16 0 17 -19 -11 365 -13 176 -21 325 -19 332 3 7 25 15 49
19 60 9 61 35 2 32 -24 -1 -76 -4 -115 -5z"/>
<path d="M5490 1201 c0 -18 6 -21 46 -21 l46 0 -6 -57 c-3 -32 -13 -164 -21
-293 -9 -129 -18 -254 -21 -277 l-5 -43 -45 0 c-31 0 -44 -4 -44 -14 0 -15 71
-24 224 -29 93 -2 118 17 37 28 l-51 7 5 36 c3 21 12 143 20 272 8 129 18 264
21 298 l7 64 43 -7 c39 -6 44 -4 44 13 0 18 -10 20 -132 27 -73 3 -141 9 -150
11 -13 4 -18 0 -18 -15z"/>
</g>
</svg>
